    <svg xmlns="http://www.w3.org/2000/svg" style="display: none;">
        <symbol id="logo" xmlns="http://www.w3.org/2000/svg" viewBox="0 0 500 500" style="enable-background:new 0 0 500 500;">
            <g>
                <path d="M181,380.4c-42.7-12.3-76.3-35.2-101.8-68.7C53.7,278.2,41,239.7,41,196.2C41,142,61.2,96,101.7,58
		c40.5-38,89.6-57,147.5-57C307,1,356.3,20,397,58c40.7,38,61.1,84.1,61.1,138.2c0,44-12.9,82.8-38.7,116.6
		c-25.8,33.8-60.3,57-103.4,69.5l0-98.8c18.4-8.4,32.3-20.2,42-35.2c9.6-15.1,14.5-32.8,14.5-53.1c0-29.2-11.7-54.1-35.1-74.6
		C313.9,100.2,285.4,90,251.9,90c-35.6,0-65.3,10.5-89.3,31.5c-24,21-36,47-36,78c0,17.1,4.9,33.1,14.8,47.9
		c9.9,14.8,22.8,26.3,39.5,34.3L181,380.4z"/>
            </g>
            <rect x="170" y="445.4" width="157" height="54.6"/>
            <line style="fill:none;stroke:#000000;stroke-width:11;stroke-miterlimit:10;" x1="321.8" y1="372.2" x2="321.5" y2="455.5"/>
            <line style="fill:none;stroke:#000000;stroke-width:11;stroke-miterlimit:10;" x1="175.3" y1="375.3" x2="175.5" y2="458.5"/>
        </symbol>

        <symbol id="arrow-right" viewBox="0 0 15 15" fill="none" xmlns="http://www.w3.org/2000/svg">
            <path d="M3.67505 2.575L8.60005 7.5L3.67505 12.425L5.00005 13.75L11.25 7.5L5.00005 1.25L3.67505 2.575Z" fill="currentColor"/>
        </symbol>
    </svg>
