    <svg xmlns="http://www.w3.org/2000/svg" style="display: none;">
        <symbol id="logo" xmlns="http://www.w3.org/2000/svg" viewBox="0 0 500 500" style="enable-background:new 0 0 500 500;">
            <g>
                <path fill="currentColor" d="M169.2,444.2c-50.3-14.4-89.9-41.1-120-80.2s-45-84.1-45-134.9c0-63.3,23.8-117,71.5-161.4S181.4,1,249.6,1
		c68.1,0,126.2,22.2,174.2,66.6s72,98.2,72,161.4c0,51.4-15.2,96.7-45.6,136.2c-30.4,39.5-71.1,66.6-121.8,81.2V331
		c21.7-9.8,38.1-23.6,49.5-41.1c11.3-17.6,17.1-38.3,17.1-62c0-34.1-13.8-63.2-41.4-87.1c-27.7-23.8-61.3-35.7-100.7-35.7
		c-41.9,0-76.9,12.3-105.2,36.8s-42.4,54.9-42.4,91.1c0,20,5.8,38.7,17.4,56c11.7,17.3,26.9,30.7,46.5,40.1L169.2,444.2z"/>
            </g>
            <rect fill="currentColor" x="183.5" y="446.4" width="130.6" height="53.6"/>
        </symbol>

        <symbol id="arrow-right" viewBox="0 0 15 15" fill="none" xmlns="http://www.w3.org/2000/svg">
            <path d="M3.67505 2.575L8.60005 7.5L3.67505 12.425L5.00005 13.75L11.25 7.5L5.00005 1.25L3.67505 2.575Z" fill="currentColor"/>
        </symbol>
    </svg>
