<svg version="1.1" xmlns="http://www.w3.org/2000/svg" xmlns:xlink="http://www.w3.org/1999/xlink" x="0px" y="0px"
	 viewBox="0 0 20 20" style="enable-background:new 0 0 20 20;">
    <path fill="#fff" d="M20,13.3l-3.1,3.1l-3.1-3.1l1.1-1.1l1.2,1.2V5.9c0-0.2-0.1-0.4-0.2-0.5c-0.1-0.1-0.3-0.2-0.6-0.2H6.9L5.3,3.6
        h10c0.6,0,1.2,0.2,1.7,0.7c0.4,0.4,0.7,1,0.7,1.7v7.6l1.2-1.2L20,13.3z M12.8,14.9H4.7c-0.2,0-0.4-0.1-0.6-0.2
        c-0.1-0.1-0.2-0.3-0.2-0.5V6.5l1.2,1.2l1.1-1.1L3.1,3.5L0,6.7l1.1,1.1l1.2-1.2v7.6c0,0.6,0.2,1.2,0.7,1.7c0.4,0.4,1,0.7,1.7,0.7h10
        l-1.6-1.6H12.8z"/>
</svg>
