<?xml version="1.0" encoding="utf-8"?>
<!-- Generator: Adobe Illustrator 24.0.1, SVG Export Plug-In . SVG Version: 6.00 Build 0)  -->
<svg version="1.1" id="Ebene_1" xmlns="http://www.w3.org/2000/svg" xmlns:xlink="http://www.w3.org/1999/xlink" x="0px" y="0px"
	 viewBox="0 0 1000 1000" style="enable-background:new 0 0 1000 1000;" xml:space="preserve">
<path d="M515.2,982.1c0,0-316.7-185.1-325.4-475c-3.6-121.6,69.3-227.4,167.8-273.7c69.5-32.6,131.4-29.2,131.4-29.2
	c29.5-23.1,88.8-55.9,136.2-71.8c55.8-18.6,104.6-24.3,142.3-19.5c0,0-68.3-50.2-144.4-73.5c-69.9-21.4-162.1-34.7-277.7-1.9
	c-25.1,7.1-195.5,60.8-288.4,230.6C45.7,289.1,5.9,365.7,0.7,472.4c-1.9,39.4-6.2,173.6,83.9,302.9C208,952.2,399.7,993,515.2,982.1
	z"/>
<path d="M624.1,238.3c31.5,17.3,58.4,37.7,77.8,59.6c40.5,45.5,58.4,87.6,64.5,107c5.5,16,22.4,67,13.4,133.8
	c-9.7,71.8-41.4,118-53.5,135c-51.1,70.5-115.5,96.3-141.1,105.8c-56,20.7-117.1,21.1-159.3,10.9c-43.2-10.3-57.8-16.4-79.7-28.6
	c0,0,44.3,51.6,76.6,81.5c64.5,59.6,170.3,126.5,170.3,126.5c59.6-10.9,140.5-39.5,210.4-90c107-75.4,169.7-169.7,194-286.4
	c0,0-58.4,55.9-114.3,60.8c0,0,23.1-8.5,46.2-24.3c0,0,149.6-205.6,13.4-440.3c0,0-20.7,119.2-59.6,131.4c0,0,23.1-24.3,21.9-51.1
	c0-13.4-52.3-98.5-96.1-109.5c-82.7-20.7-164.2,4.9-243.3,54.7c9,2.5,18.8,5.6,29.2,9.7C605.8,229.2,615.5,233.8,624.1,238.3z"/>
<circle cx="486.6" cy="501" r="239"/>
<path style="fill:#FFFFFF;" d="M361.3,524.1l240.8-98.5c0,0-40.1,128.9-132.6,144.7S361.3,524.1,361.3,524.1z"/>
</svg>
